<?xml version="1.0" encoding="UTF-8"?>
<svg version="1.1" xmlns="http://www.w3.org/2000/svg" width="64" height="64">
<path d="M0 0 C3.28531218 0.36503469 4.02549068 1.02973912 6.25 3.625 C8.64344654 6.17033772 8.64344654 6.17033772 10.95703125 6.140625 C13.01909745 5.88047565 14.98361919 5.50093803 17 5 C17.825 4.814375 18.65 4.62875 19.5 4.4375 C19.995 4.293125 20.49 4.14875 21 4 C21.31523361 8.01922848 21.38044558 10.35183346 19.3125 13.875 C16.78639739 16.19628348 15.37234971 16.71897086 12 17 C11.9071875 18.670625 11.9071875 18.670625 11.8125 20.375 C11.25396463 25.05169168 9.37486508 28.69247368 7.15625 32.80078125 C5.88568747 35.07364326 5.88568747 35.07364326 5 38 C6.32 39.32 7.64 40.64 9 42 C8.505 42.99 8.505 42.99 8 44 C5.05791089 44.36146973 2.13703619 44.44427382 -0.82421875 44.55859375 C-4.06514932 44.82914637 -4.06514932 44.82914637 -6.90234375 46.50390625 C-10.6130451 48.29608609 -13.83401751 48.53681009 -17.875 48.5 C-18.93618042 48.49359497 -18.93618042 48.49359497 -20.01879883 48.48706055 C-25.95652672 48.29335715 -29.67883451 46.99130553 -34 43 C-34.9075 42.21625 -35.815 41.4325 -36.75 40.625 C-42.86219917 33.49410097 -43.77527357 27.9948814 -43.38671875 18.765625 C-42.76176287 12.68019602 -41.01249118 9.95953088 -36.625 5.6875 C-31.44294198 2.35617699 -27.06893311 1.78828072 -21.05078125 2.02734375 C-18.79728637 2.10106861 -18.79728637 2.10106861 -16 1 C-14.60560336 0.93334624 -13.20830125 0.91461801 -11.8125 0.9375 C-9.9253125 0.9684375 -9.9253125 0.9684375 -8 1 C-8 1.99 -8 2.98 -8 4 C-8.66 4 -9.32 4 -10 4 C-8.87469572 7.37591285 -7.83946383 8.28446799 -5.1875 10.5625 C-4.50042969 11.16191406 -3.81335937 11.76132812 -3.10546875 12.37890625 C-1.13444155 13.89648749 0.73964261 14.97902958 3 16 C2.525625 15.566875 2.05125 15.13375 1.5625 14.6875 C-1.84647638 11.00580551 -1.14908773 6.69626341 -1 2 C-0.67 1.34 -0.34 0.68 0 0 Z M-38 18 C-37.60251157 25.28728788 -35.66960054 31.53963107 -30.21875 36.6796875 C-27.37981254 38.80889059 -25.60273971 40 -22 40 C-22.33 38.02 -22.66 36.04 -23 34 C-18.21993392 35.91202643 -14.20227047 38.02766235 -10 41 C-9.34 40.67 -8.68 40.34 -8 40 C-17.97457637 25.77741724 -17.97457637 25.77741724 -33 18 C-35.83535452 17.74485464 -35.83535452 17.74485464 -38 18 Z M-5 22 C-5.33 22.99 -5.66 23.98 -6 25 C-4.02 25.99 -4.02 25.99 -2 27 C-2.66 25.35 -3.32 23.7 -4 22 C-4.33 22 -4.66 22 -5 22 Z " fill="#526CFD" transform="translate(43,9)"/>
</svg>
