<?xml version="1.0" encoding="UTF-8"?>
<svg version="1.1" xmlns="http://www.w3.org/2000/svg" width="64" height="64">
<path d="M0 0 C-0.60550522 3.12385647 -1.63135466 5.07190899 -3.5 7.625 C-7.6479898 14.12271812 -7.21391063 20.56420124 -6.375 28 C-5.61877062 35.97106641 -7.12471715 42.09575902 -12.1875 48.375 C-17.96424066 54.29555993 -22.6875838 56.21611812 -31 56.5 C-37.07061199 56.34333905 -40.91321053 55.25554526 -46 52 C-46 51.34 -46 50.68 -46 50 C-41.74088651 47.07946504 -38.78458061 46.89728332 -33.625 47.125 C-27.3653345 47.27506047 -23.61997765 46.25274866 -19 42 C-15.18449764 37.94602874 -15.74806913 33.51007934 -15.89453125 28.23046875 C-15.94673828 27.12638672 -15.94673828 27.12638672 -16 26 C-18.8570698 26 -19.99012859 27.33608074 -22.24609375 29.0625 C-23.50196289 30.00996094 -23.50196289 30.00996094 -24.78320312 30.9765625 C-26.55026485 32.32363825 -28.31589588 33.67259286 -30.08007812 35.0234375 C-30.91861328 35.65507813 -31.75714844 36.28671875 -32.62109375 36.9375 C-33.3886499 37.52402344 -34.15620605 38.11054687 -34.94702148 38.71484375 C-37 40 -37 40 -40 40 C-38.59779351 36.83199926 -36.94085834 34.68824332 -34.5 32.24121094 C-33.78585938 31.52076599 -33.07171875 30.80032104 -32.3359375 30.05804443 C-31.56507812 29.29123352 -30.79421875 28.52442261 -30 27.734375 C-29.20851563 26.94097717 -28.41703125 26.14757935 -27.6015625 25.33013916 C-25.92954263 23.65675946 -24.25499903 21.98589819 -22.578125 20.31738281 C-20.00287602 17.75286403 -17.43848948 15.17783011 -14.875 12.6015625 C-13.25064116 10.97852473 -11.62566231 9.35610719 -10 7.734375 C-9.22914062 6.95946716 -8.45828125 6.18455933 -7.6640625 5.38616943 C-6.94992188 4.67833313 -6.23578125 3.97049683 -5.5 3.24121094 C-4.8709375 2.61373962 -4.241875 1.98626831 -3.59375 1.33978271 C-2 0 -2 0 0 0 Z " fill="#000000" transform="translate(64,1)"/>
<path d="M0 0 C0.495 1.485 0.495 1.485 1 3 C-3.25682092 5.91896292 -6.27755589 6.12178372 -11.4375 5.9375 C-18.79354821 5.76993626 -21.94808411 7.18902484 -27.375 12.1875 C-29.61883769 16.07106524 -30.22234366 19.53012579 -30 24 C-29.25505262 26.55481953 -28.22114197 28.60468306 -27 31 C-26.63738362 32.32566898 -26.29690943 33.65808582 -26 35 C-29.17714767 37.90265146 -32.35967203 40.79918777 -35.55029297 43.68701172 C-36.8492387 44.86345668 -38.1455004 46.04286356 -39.44140625 47.22265625 C-40.14136719 47.85042969 -40.84132813 48.47820313 -41.5625 49.125 C-42.18253906 49.68445312 -42.80257812 50.24390625 -43.44140625 50.8203125 C-45 52 -45 52 -47 52 C-46.44047864 48.13580564 -44.69141849 46.36447954 -42 43.625 C-37.79771703 39.03350462 -37.79771703 39.03350462 -37 33 C-37.66084583 30.66501142 -38.32811503 28.33183607 -39 26 C-40.02569634 18.25671493 -38.15658162 11.16450001 -33.421875 4.91796875 C-24.91159329 -4.18649929 -10.9231197 -7.04318804 0 0 Z " fill="#000000" transform="translate(47,11)"/>
</svg>
