<?xml version="1.0" encoding="UTF-8"?>
<svg version="1.1" xmlns="http://www.w3.org/2000/svg" width="400" height="400">
<path d="M0 0 C3.72297861 1.8614893 5.44451274 3.25586673 8.25 6.1875 C11.64061668 9.72042359 15.19788558 12.94759494 18.89453125 16.15063477 C22.30001141 19.14188154 25.58276316 22.26030749 28.875 25.375 C33.99043571 30.19392282 39.14310466 34.95712365 44.38671875 39.63671875 C48.41144864 43.27642216 52.363889 46.99276119 56.32568359 50.70068359 C62.17901315 56.17609326 68.0821846 61.59437901 74 67 C76.20913056 69.01996353 78.41722096 71.04105951 80.625 73.0625 C81.13442139 73.52809326 81.64384277 73.99368652 82.16870117 74.47338867 C84.14742361 76.28488563 86.10275018 78.10275018 88 80 C88.33 53.6 88.66 27.2 89 0 C95.27 0 101.54 0 108 0 C108 26.73 108 53.46 108 81 C114.04111358 75.74753633 114.04111358 75.74753633 119.9296875 70.3515625 C120.57429932 69.74368896 121.21891113 69.13581543 121.88305664 68.50952148 C122.54039795 67.88762939 123.19773926 67.2657373 123.875 66.625 C128.99043571 61.80607718 134.14310466 57.04287635 139.38671875 52.36328125 C142.75106217 49.32078832 146.06325181 46.22453103 149.375 43.125 C155.87735088 37.03932042 162.42462221 31.00669647 169 25 C170.48202632 23.64393607 171.96354718 22.28732461 173.44458008 20.93017578 C174.43343173 20.02428094 175.42284526 19.118999 176.4128418 18.21435547 C179.12702877 15.73105901 181.82390683 13.23112382 184.50390625 10.7109375 C185.37897827 9.8919397 185.37897827 9.8919397 186.27172852 9.05639648 C187.39689844 8.00243381 188.51867085 6.94482847 189.63647461 5.88305664 C192.37674627 3.32222037 194.59597274 1.70201363 198 0 C198 31.02 198 62.04 198 94 C210.21 94 222.42 94 235 94 C235 139.21 235 184.42 235 231 C223.12 231 211.24 231 199 231 C199 258.72 199 286.44 199 315 C194.33025351 313.83256338 192.09672859 311.60866671 188.75 308.375 C187.57746811 307.26754566 186.40429439 306.16077046 185.23046875 305.0546875 C184.6689209 304.52198242 184.10737305 303.98927734 183.52880859 303.44042969 C179.4152064 299.56463075 175.08883793 295.92756883 170.7890625 292.26171875 C169.58837959 291.23716908 168.38786379 290.21242354 167.1875 289.1875 C166.58131836 288.67018311 165.97513672 288.15286621 165.35058594 287.61987305 C161.6092918 284.41497771 157.93884617 281.14790722 154.3125 277.8125 C150.85984304 274.64169258 147.34469034 271.61964969 143.6875 268.6875 C138.63856354 264.61810042 133.93009298 260.26065629 129.21411133 255.81738281 C124.73700217 251.62268068 120.11634193 247.71217956 115.3046875 243.90234375 C113.08452978 242.06977289 111.03561001 240.03561001 109 238 C108.67 263.74 108.34 289.48 108 316 C101.73 316 95.46 316 89 316 C88.67 290.92 88.34 265.84 88 240 C84.37 243.3 80.74 246.6 77 250 C73.30190979 253.2737192 69.57791532 256.5106346 65.81640625 259.7109375 C60.06028544 264.61349821 54.35220046 269.54050557 48.8125 274.6875 C45.18716792 278.05583447 41.48767607 281.2792202 37.625 284.375 C32.59277074 288.42108635 27.90731436 292.7605756 23.21166992 297.18505859 C18.76821514 301.34846113 14.18476896 305.22711601 9.40234375 309 C6.87169357 311.03687445 6.87169357 311.03687445 4.31640625 313.75 C2 316 2 316 0 316 C0 287.95 0 259.9 0 231 C-12.21 231 -24.42 231 -37 231 C-37 185.79 -37 140.58 -37 94 C-24.79 94 -12.58 94 0 94 C0 62.98 0 31.96 0 0 Z M18 42 C18 59.16 18 76.32 18 94 C36.81 94 55.62 94 75 94 C73.35 92.35 71.7 90.7 70 89 C69.13761719 88.12601563 68.27523437 87.25203125 67.38671875 86.3515625 C66.49597656 85.45179687 65.60523438 84.55203125 64.6875 83.625 C63.80449219 82.73039062 62.92148438 81.83578125 62.01171875 80.9140625 C59.14269975 78.07930336 56.11085887 75.45245655 53.0637207 72.81201172 C49.71598461 69.87259408 46.48723358 66.80995555 43.25 63.75 C41.85322332 62.43711823 40.45608441 61.12462175 39.05859375 59.8125 C38.03354736 58.84957031 38.03354736 58.84957031 36.98779297 57.8671875 C36.33182129 57.25101563 35.67584961 56.63484375 35 56 C34.39945801 55.43539062 33.79891602 54.87078125 33.18017578 54.2890625 C31.56197836 52.77127939 29.93824301 51.25969252 28.3125 49.75 C27.40113281 48.89921875 26.48976563 48.0484375 25.55078125 47.171875 C22.73884832 44.6572474 22.73884832 44.6572474 18 42 Z M175.8984375 43.94140625 C174.64933594 45.23884766 174.64933594 45.23884766 173.375 46.5625 C169.75786315 50.3108579 166.01340329 53.77271316 162.07470703 57.18139648 C158.72130723 60.1208499 155.49008556 63.18685842 152.25 66.25 C143.14215923 74.82264761 133.99028674 83.33467996 124.546875 91.5390625 C124.03640625 92.02117187 123.5259375 92.50328125 123 93 C123 93.33 123 93.66 123 94 C141.81 94 160.62 94 180 94 C180 76.84 180 59.68 180 42 C177.76800509 41.77381214 177.76800509 41.77381214 175.8984375 43.94140625 Z M-19 112 C-19 145.33 -19 178.66 -19 213 C-12.73 213 -6.46 213 0 213 C-0.06703125 210.74542969 -0.1340625 208.49085938 -0.203125 206.16796875 C-0.2272112 203.94677685 -0.2305198 201.72643596 -0.23193359 199.50512695 C-0.24382686 197.97941424 -0.27681067 196.45369678 -0.33251953 194.92895508 C-0.79587312 181.60972491 -0.79587312 181.60972491 3.57568359 176.63378906 C6.50087785 173.78098099 9.70542474 171.40946159 13 169 C14.72561826 167.47770551 16.43729332 165.93922027 18.125 164.375 C20.55623816 162.19153134 22.98904721 160.00982218 25.421875 157.828125 C30.48872009 153.27764629 35.52362488 148.69394033 40.53857422 144.08642578 C44.47792546 140.4701998 48.44926265 136.89117595 52.4296875 133.3203125 C55.85834351 130.22514279 59.25587085 127.09662918 62.65332031 123.96728516 C66.26378526 120.65042105 69.93569813 117.41641906 73.671875 114.2421875 C74.32929688 113.62730469 74.32929688 113.62730469 75 113 C75 112.67 75 112.34 75 112 C43.98 112 12.96 112 -19 112 Z M124 112 C127.94023802 116.59694436 131.45431358 120.51317405 135.875 124.5 C136.6630603 125.21361694 136.6630603 125.21361694 137.46704102 125.94165039 C140.8784374 129.02232082 144.33473507 132.0488832 147.80859375 135.05859375 C151.33273281 138.18069199 154.77045368 141.39597143 158.22241211 144.59741211 C161.11364128 147.27401038 164.01889404 149.92311179 167 152.5 C171.10769842 156.05307247 175.08015824 159.74718261 179.06225586 163.43945312 C183.29391395 167.35982391 187.57055036 171.22639222 191.87890625 175.0625 C192.57886719 175.701875 193.27882813 176.34125 194 177 C194.6911792 177.5475293 195.3823584 178.09505859 196.09448242 178.65917969 C198.74837389 181.91933489 198.54322099 184.22292228 198.609375 188.390625 C198.62591125 189.09523865 198.64244751 189.79985229 198.65948486 190.52581787 C198.70791139 192.76730102 198.72932187 195.00810613 198.75 197.25 C198.77816448 198.77347151 198.80809259 200.29691152 198.83984375 201.8203125 C198.91697946 205.54718508 198.95753903 209.2719271 199 213 C204.94 213 210.88 213 217 213 C217 179.67 217 146.34 217 112 C186.31 112 155.62 112 124 112 Z M109 126 C108.67425278 137.11798361 108.42619261 148.23481584 108.27462959 159.35661602 C108.20184657 164.52242864 108.10331536 169.68495561 107.94384766 174.84887695 C107.79064164 179.84182773 107.70780799 184.83163996 107.6717186 189.82676125 C107.64603721 191.72283138 107.59587991 193.61874759 107.51977921 195.51346397 C106.93932119 207.04896686 106.93932119 207.04896686 112.01654053 216.9906311 C114.89401853 219.859408 117.97650768 222.36570322 121.26604843 224.74532509 C123.76678734 226.55484182 126.12296511 228.53235529 128.5 230.5 C129.3765625 231.20125 130.253125 231.9025 131.15625 232.625 C134.55635185 235.4646455 137.775851 238.46389371 141 241.5 C145.90906524 246.12244324 150.94142627 250.46718737 156.2109375 254.6796875 C160.02901265 257.85606935 163.64267157 261.23560365 167.23461914 264.66430664 C170.09877173 267.3672791 173.03830975 269.83210303 176.20239258 272.1809082 C177.27231194 272.97704277 177.27231194 272.97704277 178.36384583 273.78926086 C178.9037767 274.18880478 179.44370758 274.58834869 180 275 C180.30234231 263.99501424 180.53275548 252.99102909 180.67355824 241.98272324 C180.74116987 236.86979381 180.83272173 231.75972206 180.98071289 226.6484375 C181.1228653 221.70740359 181.19987208 216.76910155 181.23340416 211.8261795 C181.25726969 209.9488856 181.30388016 208.07172735 181.37449074 206.19561005 C181.98889593 194.97388567 181.98889593 194.97388567 177.19735718 185.25427246 C174.53214062 182.6106175 171.66488607 180.34106213 168.60663414 178.1710434 C166.22347869 176.43400919 164.09520273 174.44315215 161.9375 172.4375 C161.14214844 171.72464844 160.34679687 171.01179688 159.52734375 170.27734375 C156.66917797 167.70190225 153.83289739 165.10314236 151 162.5 C147.35072829 159.14706883 143.68830402 155.81001643 140 152.5 C136.31168986 149.18997808 132.64977385 145.85238916 129 142.5 C127.98966492 141.57412971 126.97924889 140.64834775 125.96875 139.72265625 C124.02673937 137.9435362 122.09024888 136.15898008 120.15625 134.37109375 C119.2796875 133.56800781 118.403125 132.76492187 117.5 131.9375 C116.7265625 131.22464844 115.953125 130.51179687 115.15625 129.77734375 C113.15183521 128.12515402 111.32775305 127.10933886 109 126 Z M71.9230957 140.4519043 C67.82505577 144.2473052 63.68683495 147.99461956 59.52734375 151.72265625 C56.66917797 154.29809775 53.83289739 156.89685764 51 159.5 C46.55343995 163.58547539 42.07795274 167.63689213 37.58203125 171.66796875 C35.67454929 173.39076259 33.77665505 175.12143914 31.88671875 176.86328125 C31.08911133 177.59804687 31.08911133 177.59804687 30.27539062 178.34765625 C28.76950845 179.73684645 27.2655574 181.12812913 25.76171875 182.51953125 C23 185 23 185 20.36286926 186.62750244 C17.57620813 189.42551875 17.41401801 191.14314331 17.37789917 195.01881409 C17.40486374 196.21751381 17.40486374 196.21751381 17.43237305 197.44042969 C17.43164291 198.28957443 17.43091278 199.13871918 17.43016052 200.01359558 C17.43364072 202.8170079 17.47252136 205.61875341 17.51171875 208.421875 C17.52104536 210.36671033 17.52816219 212.31155741 17.53315735 214.25640869 C17.5522391 219.37278737 17.6013503 224.48845521 17.65667725 229.60455322 C17.70784419 234.82611474 17.73066595 240.04779124 17.75585938 245.26953125 C17.80946768 255.51333298 17.89479496 265.75660736 18 276 C19.25852274 275.07181001 20.51484208 274.14063212 21.77026367 273.20825195 C22.47011887 272.69003372 23.16997406 272.17181549 23.89103699 271.63789368 C27.23894604 269.03779162 30.26005481 266.12302749 33.3125 263.1875 C38.43720616 258.32693431 43.66783448 253.74721082 49.19140625 249.33984375 C52.58237649 246.51482126 55.78789106 243.52497056 59 240.5 C63.10077664 236.63891157 67.23194191 232.90717063 71.625 229.375 C72.43862 228.70104691 73.25223999 228.02709381 74.09051514 227.3327179 C77 225 77 225 80.10870361 222.88102722 C85.06415534 219.13504615 88.97667787 215.97754145 90.05163574 209.61782837 C90.53916104 204.30096762 90.35212427 199.00396127 90.171875 193.67578125 C90.14945691 191.71857436 90.13239264 189.76129953 90.12042236 187.80400085 C90.07488521 182.68447661 89.95727855 177.56912341 89.82397461 172.45123291 C89.70059163 167.21610943 89.64628005 161.98030301 89.5859375 156.74414062 C89.45774184 146.49427396 89.2532997 136.2474855 89 126 C84.15159993 126 75.63599299 137.01170869 71.9230957 140.4519043 Z " fill="#000000" transform="translate(101,42)"/>
</svg>
