<?xml version="1.0" encoding="UTF-8"?>
<svg version="1.1" xmlns="http://www.w3.org/2000/svg" width="64" height="64">
<path d="M0 0 C2.10241603 -0.13496251 4.2072961 -0.23197307 6.3125 -0.3125 C7.48425781 -0.37050781 8.65601563 -0.42851563 9.86328125 -0.48828125 C11.41595703 -0.24658203 11.41595703 -0.24658203 13 0 C13.68835937 1.23169922 13.68835937 1.23169922 14.390625 2.48828125 C14.92171875 3.31714844 15.4528125 4.14601563 16 5 C19.68186321 5.50528092 23.05492941 5.53033488 26.75195312 5.44921875 C32.4849461 5.49911425 32.4849461 5.49911425 35.4140625 8.34765625 C35.93742187 9.22292969 36.46078125 10.09820312 37 11 C37.639375 11.969375 38.27875 12.93875 38.9375 13.9375 C40 17 40 17 38.625 20.0625 C38.08875 21.031875 37.5525 22.00125 37 23 C37.36977524 26.73412374 38.59129541 29.28694224 40.5625 32.4375 C42.68756879 36.18579917 43.95126642 38.62417447 43 43 C41.77448418 45.88494634 40.47936722 48.04707377 38 50 C34.91319653 50.5832923 32.10066581 50.42558158 29 50 C28.773125 50.639375 28.54625 51.27875 28.3125 51.9375 C26.51434174 56.13320261 24.26095979 60.03900556 22 64 C19.89758397 64.13496251 17.7927039 64.23197307 15.6875 64.3125 C14.51574219 64.37050781 13.34398437 64.42851563 12.13671875 64.48828125 C10.58404297 64.24658203 10.58404297 64.24658203 9 64 C8.54109375 63.17886719 8.0821875 62.35773437 7.609375 61.51171875 C7.07828125 60.68285156 6.5471875 59.85398438 6 59 C2.31813679 58.49471908 -1.05492941 58.46966512 -4.75195312 58.55078125 C-10.4849461 58.50088575 -10.4849461 58.50088575 -13.4140625 55.65234375 C-13.93742188 54.77707031 -14.46078125 53.90179688 -15 53 C-15.639375 52.030625 -16.27875 51.06125 -16.9375 50.0625 C-18 47 -18 47 -16.625 43.9375 C-16.08875 42.968125 -15.5525 41.99875 -15 41 C-15.36977524 37.26587626 -16.59129541 34.71305776 -18.5625 31.5625 C-20.68756879 27.81420083 -21.95126642 25.37582553 -21 21 C-19.77448418 18.11505366 -18.47936722 15.95292623 -16 14 C-12.91319653 13.4167077 -10.10066581 13.57441842 -7 14 C-6.6596875 13.0409375 -6.6596875 13.0409375 -6.3125 12.0625 C-4.51434174 7.86679739 -2.26095979 3.96099444 0 0 Z " fill="#7467F5" transform="translate(21,0)"/>
<path d="M0 0 C0.83996934 2.37727173 1.18163274 3.5491127 0.22265625 5.9296875 C-0.16019531 6.57164063 -0.54304688 7.21359375 -0.9375 7.875 C-2.8639629 11.41015872 -3.40852614 13.91473858 -3 18 C-3.66 17.67 -4.32 17.34 -5 17 C-5 16.34 -5 15.68 -5 15 C-7.64 15.33 -10.28 15.66 -13 16 C-12.48614746 16.89138672 -12.48614746 16.89138672 -11.96191406 17.80078125 C-10.38893686 20.53251478 -8.81944935 23.26623823 -7.25 26 C-6.71117187 26.93457031 -6.17234375 27.86914062 -5.6171875 28.83203125 C-2.56910538 34.14758909 0.32216251 39.48833448 3 45 C0.03 45 -2.94 45 -6 45 C-6.309375 45.969375 -6.61875 46.93875 -6.9375 47.9375 C-8 51 -8 51 -9 52 C-3.72 52.33 1.56 52.66 7 53 C7.66 51.35 8.32 49.7 9 48 C10 50 10 50 9.4375 51.75 C8.82452717 54.9024317 9.8627054 57.05641398 11 60 C11.66 60 12.32 60 13 60 C13.23847656 59.17113281 13.47695313 58.34226563 13.72265625 57.48828125 C15.21796272 53.40476848 17.19643187 49.89847711 19.4375 46.1875 C20.03014648 45.1675293 20.03014648 45.1675293 20.63476562 44.12695312 C23.633682 39.122106 23.633682 39.122106 27 38 C27 37.34 27 36.68 27 36 C28.98 35.505 28.98 35.505 31 35 C31 35.99 31 36.98 31 38 C35.29 38 39.58 38 44 38 C42.63636364 44.81818182 42.63636364 44.81818182 39 48 C35.95529165 48.41995977 33.05275741 48.29353437 30 48 C29.773125 48.639375 29.54625 49.27875 29.3125 49.9375 C27.51434174 54.13320261 25.26095979 58.03900556 23 62 C20.89758397 62.13496251 18.7927039 62.23197307 16.6875 62.3125 C15.51574219 62.37050781 14.34398437 62.42851563 13.13671875 62.48828125 C11.58404297 62.24658203 11.58404297 62.24658203 10 62 C9.54109375 61.17886719 9.0821875 60.35773437 8.609375 59.51171875 C8.07828125 58.68285156 7.5471875 57.85398438 7 57 C3.31813679 56.49471908 -0.05492941 56.46966512 -3.75195312 56.55078125 C-9.4849461 56.50088575 -9.4849461 56.50088575 -12.4140625 53.65234375 C-12.93742188 52.77707031 -13.46078125 51.90179688 -14 51 C-14.639375 50.030625 -15.27875 49.06125 -15.9375 48.0625 C-17 45 -17 45 -15.625 41.9375 C-15.08875 40.968125 -14.5525 39.99875 -14 39 C-14.36977524 35.26587626 -15.59129541 32.71305776 -17.5625 29.5625 C-19.68756879 25.81420083 -20.95126642 23.37582553 -20 19 C-18.77448418 16.11505366 -17.47936722 13.95292623 -15 12 C-11.91319653 11.4167077 -9.10066581 11.57441842 -6 12 C-5.7525 11.319375 -5.505 10.63875 -5.25 9.9375 C-3.75802092 6.43134917 -1.93164489 3.28379632 0 0 Z " fill="#6651EA" transform="translate(20,2)"/>
<path d="M0 0 C2.97 0 5.94 0 9 0 C11.10110416 3.62869458 13.20066679 7.25827529 15.29882812 10.88867188 C16.01227577 12.1226385 16.72613831 13.35636534 17.44042969 14.58984375 C18.46920139 16.36655254 19.49646013 18.14412859 20.5234375 19.921875 C21.14138184 20.99018555 21.75932617 22.05849609 22.39599609 23.15917969 C23.66930987 25.41432111 24.8739154 27.6691524 26 30 C26.32798584 29.39937744 26.65597168 28.79875488 26.99389648 28.17993164 C28.47330906 25.47313901 29.95536786 22.76780439 31.4375 20.0625 C31.95376953 19.11697266 32.47003906 18.17144531 33.00195312 17.19726562 C33.74155273 15.84858398 33.74155273 15.84858398 34.49609375 14.47265625 C34.95169678 13.64000244 35.4072998 12.80734863 35.87670898 11.94946289 C37 10 37 10 38 9 C41.87995016 8.1072087 45.15443298 7.89903034 49 9 C52.25974058 12.71666148 56 17.86971236 56 23 C50.71502591 23.52849741 50.71502591 23.52849741 48 23 C45.5 20 45.5 20 44 17 C41.1214608 19.54302735 39.49548638 22.41641452 37.64453125 25.76171875 C37.02255859 26.87998047 36.40058594 27.99824219 35.75976562 29.15039062 C35.11056713 30.32936654 34.46147999 31.50840379 33.8125 32.6875 C33.15215726 33.87851289 32.49135489 35.06927107 31.83007812 36.25976562 C30.21551036 39.17070167 28.60569121 42.08416106 27 45 C26.34 45 25.68 45 25 45 C22 39.375 22 39.375 22 36 C21.67 36.66 21.34 37.32 21 38 C15.39 38 9.78 38 4 38 C6.34375 31.84765625 6.34375 31.84765625 8 30 C10.70163502 29.3361425 13.20279119 29.17908959 16 29 C15.55084229 28.19256348 15.10168457 27.38512695 14.63891602 26.55322266 C12.97435019 23.56041049 11.31016555 20.56738703 9.64624023 17.57421875 C8.92569024 16.27823516 8.20498793 14.98233625 7.48413086 13.68652344 C6.44865608 11.82509183 5.41372752 9.96335747 4.37890625 8.1015625 C3.44413452 6.42054443 3.44413452 6.42054443 2.49047852 4.70556641 C1.63416954 3.15116574 0.79365313 1.58730627 0 0 Z " fill="#F8F3FE" transform="translate(6,17)"/>
<path d="M0 0 C0 0.99 0 1.98 0 3 C4.29 3 8.58 3 13 3 C11.63636364 9.81818182 11.63636364 9.81818182 8 13 C4.95529165 13.41995977 2.05275741 13.29353437 -1 13 C-1.3403125 13.9590625 -1.3403125 13.9590625 -1.6875 14.9375 C-3.48565826 19.13320261 -5.73904021 23.03900556 -8 27 C-10.12472576 27.05386629 -12.24983652 27.09273071 -14.375 27.125 C-15.55835938 27.14820312 -16.74171875 27.17140625 -17.9609375 27.1953125 C-21 27 -21 27 -23 25 C-23 24.01 -23 23.02 -23 22 C-22.01 22.33 -21.02 22.66 -20 23 C-20 23.66 -20 24.32 -20 25 C-19.34 25 -18.68 25 -18 25 C-17.64228516 23.75669922 -17.64228516 23.75669922 -17.27734375 22.48828125 C-15.78203728 18.40476848 -13.80356813 14.89847711 -11.5625 11.1875 C-11.16740234 10.50751953 -10.77230469 9.82753906 -10.36523438 9.12695312 C-7.366318 4.122106 -7.366318 4.122106 -4 3 C-4 2.34 -4 1.68 -4 1 C-2 0 -2 0 0 0 Z " fill="#643FE9" transform="translate(51,37)"/>
<path d="M0 0 C2.0625 2.125 2.0625 2.125 4 5 C3.84286879 8.92828036 3.19403928 10.70894108 1 14 C12.22 14.33 23.44 14.66 35 15 C33.68 17.31 32.36 19.62 31 22 C26.23125836 22.14849962 21.46386585 22.25728023 16.69335938 22.32958984 C15.0713761 22.35973462 13.44955548 22.40065941 11.828125 22.45263672 C9.49438389 22.52556613 7.16279889 22.55947489 4.828125 22.5859375 C4.10506165 22.61690521 3.38199829 22.64787292 2.63702393 22.67977905 C0.57519531 22.68115234 0.57519531 22.68115234 -3 22 C-5.59453071 19.00470058 -6.94381099 17.2361582 -7.125 13.25 C-5.45177549 8.4162403 -2.76690094 4.2815042 0 0 Z " fill="#FBF8FE" transform="translate(23,2)"/>
<path d="M0 0 C7.92 0 15.84 0 24 0 C22.64292594 4.07122217 21.71655952 6.80573414 19.6171875 10.3046875 C19.17246094 11.05234375 18.72773437 11.8 18.26953125 12.5703125 C17.80933594 13.33085938 17.34914063 14.09140625 16.875 14.875 C16.40707031 15.65875 15.93914063 16.4425 15.45703125 17.25 C14.30981892 19.16982472 13.1573993 21.08630561 12 23 C11.71914551 22.42330566 11.43829102 21.84661133 11.14892578 21.25244141 C10.04912522 19.09630882 8.86524888 17.03414715 7.6171875 14.9609375 C7.17246094 14.21585938 6.72773438 13.47078125 6.26953125 12.703125 C5.33433585 11.14184641 4.39680685 9.58196343 3.45703125 8.0234375 C3.01488281 7.2809375 2.57273437 6.5384375 2.1171875 5.7734375 C1.50786377 4.75902588 1.50786377 4.75902588 0.88623047 3.72412109 C0 2 0 2 0 0 Z " fill="#6839EE" transform="translate(20,25)"/>
<path d="M0 0 C2.75164432 -0.13517903 5.49664521 -0.23415251 8.25 -0.3125 C9.02730469 -0.35439453 9.80460937 -0.39628906 10.60546875 -0.43945312 C12.83832564 -0.48716374 14.8127261 -0.45785336 17 0 C19.42578125 2.3359375 19.42578125 2.3359375 21 5 C21.639375 5.969375 22.27875 6.93875 22.9375 7.9375 C24 11 24 11 22.625 14.0625 C22.08875 15.031875 21.5525 16.00125 21 17 C21.4579836 21.68669887 23.58656639 24.90731715 26.0390625 28.81640625 C27.1658888 31.3769587 26.96772222 32.4291235 26 35 C24.37509046 35.02698189 22.75005367 35.04638757 21.125 35.0625 C20.22007813 35.07410156 19.31515625 35.08570313 18.3828125 35.09765625 C16 35 16 35 14 34 C14 33.01 14 32.02 14 31 C12.68 31.33 11.36 31.66 10 32 C10 32.66 10 33.32 10 34 C9.34 33.67 8.68 33.34 8 33 C9.32 30.69 10.64 28.38 12 26 C15.875 30.75 15.875 30.75 17 33 C18.89533342 33.46523063 18.89533342 33.46523063 21.0625 33.625 C22.361875 33.74875 23.66125 33.8725 25 34 C24.11629646 31.83145786 23.16546217 29.69019757 22.1875 27.5625 C21.40439453 25.77005859 21.40439453 25.77005859 20.60546875 23.94140625 C17.69874149 20.65989856 17.1981202 20.52776887 13.0625 20.125 C11.04235262 20.05785808 9.02118441 20.01780571 7 20 C4.81882495 19.89843899 2.63783271 19.79288331 0.45703125 19.68359375 C-1.75770321 19.59866293 -3.97255147 19.51665165 -6.1875 19.4375 C-7.33025391 19.39431641 -8.47300781 19.35113281 -9.65039062 19.30664062 C-12.43350811 19.20183704 -15.21669465 19.09966701 -18 19 C-18.66 17.35 -19.32 15.7 -20 14 C-19.66226562 14.48533203 -19.32453125 14.97066406 -18.9765625 15.47070312 C-16.0162926 17.76110958 -12.9708454 17.46774242 -9.375 17.46875 C-8.63169434 17.47636353 -7.88838867 17.48397705 -7.12255859 17.49182129 C-5.552443 17.50261728 -3.98225563 17.50547739 -2.41210938 17.50097656 C-0.00790057 17.5000032 2.39312643 17.54164238 4.796875 17.5859375 C6.32291001 17.5911439 7.84895611 17.5938327 9.375 17.59375 C10.45322021 17.6183429 10.45322021 17.6183429 11.55322266 17.64343262 C13.83061011 17.66730379 13.83061011 17.66730379 17 17 C17.99 15.35 18.98 13.7 20 12 C15.05 11.67 10.1 11.34 5 11 C5 10.67 5 10.34 5 10 C9.455 9.505 9.455 9.505 14 9 C13.34 7.68 12.68 6.36 12 5 C12.33 4.34 12.66 3.68 13 3 C12.34 3 11.68 3 11 3 C11 2.34 11 1.68 11 1 C7.37 1 3.74 1 0 1 C0 0.67 0 0.34 0 0 Z " fill="#7F72DF" transform="translate(37,6)"/>
<path d="M0 0 C2.75164432 -0.13517903 5.49664521 -0.23415251 8.25 -0.3125 C9.02730469 -0.35439453 9.80460937 -0.39628906 10.60546875 -0.43945312 C16.40903012 -0.56346085 16.40903012 -0.56346085 19.43359375 2.3203125 C21.10581768 5.18102475 22.70981719 7.94430386 24 11 C23.67 11.66 23.34 12.32 23 13 C22.01 12.67 21.02 12.34 20 12 C17.43365139 11.77281504 14.88321893 11.58391816 12.3125 11.4375 C11.61060547 11.39431641 10.90871094 11.35113281 10.18554688 11.30664062 C8.45724794 11.2008264 6.7286489 11.09993419 5 11 C5 10.67 5 10.34 5 10 C9.455 9.505 9.455 9.505 14 9 C13.34 7.68 12.68 6.36 12 5 C12.33 4.34 12.66 3.68 13 3 C12.34 3 11.68 3 11 3 C11 2.34 11 1.68 11 1 C7.37 1 3.74 1 0 1 C0 0.67 0 0.34 0 0 Z " fill="#837EE5" transform="translate(37,6)"/>
<path d="M0 0 C7.92 0 15.84 0 24 0 C22.64292594 4.07122217 21.71655952 6.80573414 19.6171875 10.3046875 C19.17246094 11.05234375 18.72773437 11.8 18.26953125 12.5703125 C17.80933594 13.33085938 17.34914063 14.09140625 16.875 14.875 C16.40707031 15.65875 15.93914063 16.4425 15.45703125 17.25 C14.30981892 19.16982472 13.1573993 21.08630561 12 23 C11.71914551 22.42330566 11.43829102 21.84661133 11.14892578 21.25244141 C10.04912522 19.09630882 8.86524888 17.03414715 7.6171875 14.9609375 C7.17246094 14.21585938 6.72773438 13.47078125 6.26953125 12.703125 C5.33433585 11.14184641 4.39680685 9.58196343 3.45703125 8.0234375 C3.01488281 7.2809375 2.57273437 6.5384375 2.1171875 5.7734375 C1.50786377 4.75902588 1.50786377 4.75902588 0.88623047 3.72412109 C0 2 0 2 0 0 Z M3 1 C3 2.32 3 3.64 3 5 C3.66 5 4.32 5 5 5 C5 5.99 5 6.98 5 8 C5.66 8 6.32 8 7 8 C7 9.65 7 11.3 7 13 C7.66 13 8.32 13 9 13 C9 13.66 9 14.32 9 15 C9.66 15 10.32 15 11 15 C11 15.99 11 16.98 11 18 C11.66 18 12.32 18 13 18 C13 17.01 13 16.02 13 15 C13.66 15 14.32 15 15 15 C15 13.68 15 12.36 15 11 C15.66 11 16.32 11 17 11 C17 10.01 17 9.02 17 8 C17.66 8 18.32 8 19 8 C20.4606285 5.35261084 21 4.10551666 21 1 C15.06 1 9.12 1 3 1 Z " fill="#6D4CD7" transform="translate(20,25)"/>
<path d="M0 0 C1 2 1 2 0.5 3.9375 C-0.23602403 6.17665424 -0.23602403 6.17665424 1 9 C-5.6 8.67 -12.2 8.34 -19 8 C-19 7.01 -19 6.02 -19 5 C-13.39 5 -7.78 5 -2 5 C-1.34 3.35 -0.68 1.7 0 0 Z " fill="#6F4AD5" transform="translate(29,50)"/>
<path d="M0 0 C2.75164432 -0.13517903 5.49664521 -0.23415251 8.25 -0.3125 C9.02730469 -0.35439453 9.80460937 -0.39628906 10.60546875 -0.43945312 C14.78469001 -0.52875272 16.38358251 -0.55090006 19.609375 2.33203125 C20.06828125 3.21246094 20.5271875 4.09289062 21 5 C20.67 5.99 20.34 6.98 20 8 C17.69 7.01 15.38 6.02 13 5 C13 4.34 13 3.68 13 3 C12.34 3 11.68 3 11 3 C11 2.34 11 1.68 11 1 C7.37 1 3.74 1 0 1 C0 0.67 0 0.34 0 0 Z " fill="#B7B1FB" transform="translate(37,6)"/>
<path d="M0 0 C0.9970971 2.62488814 1.13116719 3.68274602 0.0390625 6.32421875 C-0.42757813 7.10410156 -0.89421875 7.88398438 -1.375 8.6875 C-1.83648437 9.47511719 -2.29796875 10.26273438 -2.7734375 11.07421875 C-4 13 -4 13 -5 14 C-10.73611111 14.27314815 -10.73611111 14.27314815 -13 14 C-13.66 13.34 -14.32 12.68 -15 12 C-12.03 12 -9.06 12 -6 12 C-5.7525 11.319375 -5.505 10.63875 -5.25 9.9375 C-3.75802092 6.43134917 -1.93164489 3.28379632 0 0 Z " fill="#6A55DB" transform="translate(20,2)"/>
<path d="M0 0 C0.66 0.33 1.32 0.66 2 1 C1.67 1.66 1.34 2.32 1 3 C6.61 3 12.22 3 18 3 C16 5 16 5 14.02880859 5.22705078 C13.24328613 5.21657715 12.45776367 5.20610352 11.6484375 5.1953125 C10.37226562 5.18564453 10.37226562 5.18564453 9.0703125 5.17578125 C7.73613281 5.15064453 7.73613281 5.15064453 6.375 5.125 C5.02921875 5.11146484 5.02921875 5.11146484 3.65625 5.09765625 C1.43723414 5.0740497 -0.78125077 5.0411231 -3 5 C-2.01 3.35 -1.02 1.7 0 0 Z " fill="#6D5CCE" transform="translate(26,12)"/>
<path d="M0 0 C2.31 0 4.62 0 7 0 C6.67 1.98 6.34 3.96 6 6 C6.99 6.33 7.98 6.66 9 7 C8.34 8.65 7.68 10.3 7 12 C6.34 11.67 5.68 11.34 5 11 C4.65977214 9.00116131 4.32670903 7.00109278 4 5 C3.34 4.34 2.68 3.68 2 3 C1.34 3.66 0.68 4.32 0 5 C0 3.35 0 1.7 0 0 Z " fill="#7867E7" transform="translate(21,0)"/>
<path d="M0 0 C3.63 0 7.26 0 11 0 C11.33 0.99 11.66 1.98 12 3 C7.71 3 3.42 3 -1 3 C-0.67 2.01 -0.34 1.02 0 0 Z " fill="#D9D6FD" transform="translate(44,26)"/>
<path d="M0 0 C2.9512645 1.47563225 3.06923915 3.50079352 4.125 6.5625 C4.47820313 7.57441406 4.83140625 8.58632813 5.1953125 9.62890625 C5.46085937 10.41136719 5.72640625 11.19382812 6 12 C3.01396112 11.42504841 2.2070289 11.24986247 0.1875 8.8125 C-1.25033181 5.40710887 -0.90282145 3.52921112 0 0 Z " fill="#DBD2FD" transform="translate(17,12)"/>
<path d="M0 0 C0.66 0 1.32 0 2 0 C2 0.66 2 1.32 2 2 C2.66 2 3.32 2 4 2 C4 2.99 4 3.98 4 5 C4.66 5 5.32 5 6 5 C6 4.01 6 3.02 6 2 C6.66 2 7.32 2 8 2 C7.50168276 5.68754757 6.89932357 7.60490662 4 10 C1.125 3.375 1.125 3.375 0 0 Z " fill="#7148CF" transform="translate(27,38)"/>
<path d="M0 0 C0.66 0.33 1.32 0.66 2 1 C2.36997319 6.54959786 2.36997319 6.54959786 0.5625 8.75 C-0.2109375 9.36875 -0.2109375 9.36875 -1 10 C-1.33 10.66 -1.66 11.32 -2 12 C-2.99 11.67 -3.98 11.34 -5 11 C-4.34 11 -3.68 11 -3 11 C-2.01 7.37 -1.02 3.74 0 0 Z " fill="#C1B0F5" transform="translate(29,43)"/>
<path d="M0 0 C0.5625 1.9375 0.5625 1.9375 1 4 C-0.89488952 5.89488952 -3.57139146 5.18019112 -6.08984375 5.23046875 C-8 5 -8 5 -10 3 C-7.03 3 -4.06 3 -1 3 C-0.67 2.01 -0.34 1.02 0 0 Z " fill="#4434B5" transform="translate(15,11)"/>
<path d="M0 0 C0.33 0 0.66 0 1 0 C1.31563182 5.26053037 0.66590937 8.44573816 -2 13 C-2.66 13 -3.32 13 -4 13 C-3.79503906 12.39671875 -3.59007813 11.7934375 -3.37890625 11.171875 C-2.97478516 9.97304688 -2.97478516 9.97304688 -2.5625 8.75 C-2.29566406 7.96109375 -2.02882813 7.1721875 -1.75390625 6.359375 C-1.08045292 4.25178012 -0.50849405 2.15246027 0 0 Z " fill="#EAE4FE" transform="translate(28,41)"/>
<path d="M0 0 C0.99 0.33 1.98 0.66 3 1 C3 1.66 3 2.32 3 3 C6.0745356 2.2236068 6.0745356 2.2236068 8 0 C7.67 1.32 7.34 2.64 7 4 C4.625 4.625 4.625 4.625 2 5 C1.34 4.34 0.68 3.68 0 3 C0 2.01 0 1.02 0 0 Z " fill="#602CD1" transform="translate(28,59)"/>
</svg>
